<svg xmlns="http://www.w3.org/2000/svg" viewBox="0 0 64 64">
  <defs>
    <linearGradient id="g" x1="0" y1="0" x2="1" y2="1">
      <stop offset="0" stop-color="#14b8a6"/>
      <stop offset="1" stop-color="#0d9488"/>
    </linearGradient>
  </defs>
  <rect width="64" height="64" rx="12" fill="url(#g)"/>
  <path d="M22 44V20h11.5c4.3 0 7.5 2.7 7.5 6.5c0 3-2 5.3-5 6v.2c3.8.5 6 2.9 6 6.3c0 4.2-3.5 7-8.5 7H22Zm7-14h3.8c2.4 0 3.9-1.2 3.9-3s-1.5-3-3.9-3H29v6Zm0 11h4.7c2.8 0 4.4-1.3 4.4-3.3c0-2.1-1.7-3.3-4.6-3.3H29V41Z" fill="#ffffff"/>
</svg>
